<svg version="1.2" xmlns="http://www.w3.org/2000/svg" viewBox="0 0 1581 1545" width="1581" height="1545">
	<title>Ooredoo_logo-svg</title>
	<defs>
		<clipPath clipPathUnits="userSpaceOnUse" id="cp1">
			<path d="m-6963.81-126.46h8544.31v1671.48h-8544.31z"/>
		</clipPath>
	</defs>
	<style>
		.s0 { fill: #ed1c24 } 
	</style>
	<g id="Clip-Path: Group_126552" clip-path="url(#cp1)">
		<g id="Group_126552">
			<path id="Path_184497" class="s0" d="m1580.5 222.6c0 89.8-54.1 170.8-137 205.2-82.9 34.3-178.4 15.3-241.9-48.2-63.4-63.5-82.4-159-48.1-242 34.4-82.9 115.3-137 205.1-137 29.1-0.1 58 5.6 84.9 16.8 27 11.1 51.5 27.5 72.1 48.1 20.6 20.6 36.9 45.1 48.1 72.1 11.1 27 16.8 55.8 16.8 85z"/>
			<path id="Path_184499" fill-rule="evenodd" class="s0" d="m852.1 359.2c74.7 31.1 142.6 76.4 199.7 133.6 57.2 57.2 102.6 125.1 133.5 199.8 31 74.7 47 154.8 47.2 235.7 0 249.2-150.1 473.9-380.2 569.3-230.1 95.4-495 42.7-671.2-133.6-176.1-176.2-228.8-441.2-133.5-671.5 95.3-230.3 319.9-380.4 569-380.4 80.8 0.1 160.9 16.1 235.5 47.1zm76.1 440c-17-41-41.8-78.2-73.1-109.6-31.4-31.3-68.5-56.2-109.4-73.2-40.9-17-84.8-25.8-129.1-25.9-136.4 0-259.5 82.2-311.8 208.3-52.2 126.1-23.4 271.3 73 367.9 96.4 96.6 241.5 125.5 367.6 73.4 126.1-52.2 208.4-175.3 208.5-311.8 0-44.3-8.8-88.2-25.7-129.1z"/>
		</g>
	</g>
</svg>